# xmcd
#
# Track frame offsets:
#	183
#	14530
#	25413
#	37575
#	45568
#	65418
#	78298
#	92173
#	102478
#	112980
#	127373
#	140418
#	154843
#	166023
#	175943
#	187413
#	199205
#	210048
#	232240
#
# Disc length: 3294 seconds
#
# Revision: 0
# Processed by: cddbd v1.4PL0 Copyright (c) Steve Scherf et al.
# Submitted via: dBpowerAMP V4.0
#
DISCID=050cdc13
DTITLE=Fesaci - Pisnicky Pro Pametniky
DYEAR=1900
DGENRE=Country
TTITLE0=Posledni Vecere Obeseni V Zapadni Virginii
TTITLE1=Lora
TTITLE2=Jackson
TTITLE3=Tanecek
TTITLE4=Kamarade, Pust Ten Kolotoc
TTITLE5=Cim Jezdi Laska
TTITLE6=Slida
TTITLE7=Darek Vanocni
TTITLE8=Absolutni Slepice
TTITLE9=Dialog 2000
TTITLE10=Vis Co Ti Slusi
TTITLE11=Malerova Pisen
TTITLE12=Strasidelny Vlak
TTITLE13=Podzimni Zprava
TTITLE14=Prvni Honorar
TTITLE15=Doktore, Pomozte
TTITLE16=Nadrazi
TTITLE17=Svita Ve Tvych Tvarich
TTITLE18=Davej Vinu Dalkam
EXTD=
EXTT0=
EXTT1=
EXTT2=
EXTT3=
EXTT4=
EXTT5=
EXTT6=
EXTT7=
EXTT8=
EXTT9=
EXTT10=
EXTT11=
EXTT12=
EXTT13=
EXTT14=
EXTT15=
EXTT16=
EXTT17=
EXTT18=
PLAYORDER=
